<svg width="79" height="110" viewBox="0 0 79 110" fill="none" xmlns="http://www.w3.org/2000/svg">
<path d="M7.64 25V3.88H0.92V0.079999H19.04V3.88H11.96V25H7.64ZM29.96 25.4C28.3067 25.4 26.8 25 25.44 24.2C24.1067 23.3733 23.0533 22.2267 22.28 20.76C21.5067 19.2933 21.12 17.6 21.12 15.68C21.12 13.84 21.5067 12.1867 22.28 10.72C23.0533 9.25333 24.1067 8.09333 25.44 7.24C26.8 6.38667 28.3067 5.96 29.96 5.96C31.64 5.96 33.1467 6.38667 34.48 7.24C35.84 8.09333 36.9067 9.25333 37.68 10.72C38.48 12.1867 38.88 13.84 38.88 15.68C38.88 17.6 38.48 19.2933 37.68 20.76C36.9067 22.2267 35.84 23.3733 34.48 24.2C33.1467 25 31.64 25.4 29.96 25.4ZM29.96 21.8C30.84 21.8 31.6 21.5467 32.24 21.04C32.88 20.5067 33.3867 19.7867 33.76 18.88C34.16 17.9467 34.36 16.88 34.36 15.68C34.36 14.4267 34.16 13.3467 33.76 12.44C33.3867 11.5333 32.88 10.84 32.24 10.36C31.6 9.85333 30.84 9.6 29.96 9.6C29.16 9.6 28.4267 9.85333 27.76 10.36C27.12 10.84 26.6 11.5333 26.2 12.44C25.8267 13.3467 25.64 14.4267 25.64 15.68C25.64 16.88 25.8267 17.9467 26.2 18.88C26.5733 19.7867 27.08 20.5067 27.72 21.04C28.3867 21.5467 29.1333 21.8 29.96 21.8ZM1.68 67V42.08H8.12C9.58667 42.08 10.8133 42.2133 11.8 42.48C12.8133 42.7467 13.6667 43.1333 14.36 43.64C15.08 44.1467 15.72 44.7733 16.28 45.52C16.84 46.2667 17.3067 47.12 17.68 48.08C18.08 49.0133 18.3867 50.0267 18.6 51.12C18.8133 52.2133 18.92 53.4133 18.92 54.72C18.8667 56.6133 18.6133 58.32 18.16 59.84C17.7333 61.3333 17.0667 62.6133 16.16 63.68C15.28 64.7467 14.1333 65.5733 12.72 66.16C11.3067 66.72 9.61333 67 7.64 67H1.68ZM6.08 63.48H7.52C9.22667 63.48 10.5867 63.12 11.6 62.4C12.64 61.6533 13.3867 60.6267 13.84 59.32C14.2933 58.0133 14.5067 56.4933 14.48 54.76C14.48 52.92 14.28 51.32 13.88 49.96C13.5067 48.6 12.84 47.5467 11.88 46.8C10.92 46.0533 9.61333 45.68 7.96 45.68H6.08V63.48ZM29.96 67.4C28.3067 67.4 26.8 67 25.44 66.2C24.1067 65.3733 23.0533 64.2267 22.28 62.76C21.5067 61.2933 21.12 59.6 21.12 57.68C21.12 55.84 21.5067 54.1867 22.28 52.72C23.0533 51.2533 24.1067 50.0933 25.44 49.24C26.8 48.3867 28.3067 47.96 29.96 47.96C31.64 47.96 33.1467 48.3867 34.48 49.24C35.84 50.0933 36.9067 51.2533 37.68 52.72C38.48 54.1867 38.88 55.84 38.88 57.68C38.88 59.6 38.48 61.2933 37.68 62.76C36.9067 64.2267 35.84 65.3733 34.48 66.2C33.1467 67 31.64 67.4 29.96 67.4ZM29.96 63.8C30.84 63.8 31.6 63.5467 32.24 63.04C32.88 62.5067 33.3867 61.7867 33.76 60.88C34.16 59.9467 34.36 58.88 34.36 57.68C34.36 56.4267 34.16 55.3467 33.76 54.44C33.3867 53.5333 32.88 52.84 32.24 52.36C31.6 51.8533 30.84 51.6 29.96 51.6C29.16 51.6 28.4267 51.8533 27.76 52.36C27.12 52.84 26.6 53.5333 26.2 54.44C25.8267 55.3467 25.64 56.4267 25.64 57.68C25.64 58.88 25.8267 59.9467 26.2 60.88C26.5733 61.7867 27.08 62.5067 27.72 63.04C28.3867 63.5467 29.1333 63.8 29.96 63.8ZM2.28 84.08H6.8H7.2V84.44C7.04 84.6 6.93333 84.7733 6.88 84.96C6.85333 85.1467 6.84 85.4667 6.84 85.92V105.32H18.28V109H2.28V84.08ZM23.36 109V105.44H27.92V93.96H23.6V90.4H32.48V105.44H36.64V109H23.36ZM30 87.32C29.2267 87.32 28.56 87.0533 28 86.52C27.44 85.9867 27.16 85.3467 27.16 84.6C27.16 83.8 27.4267 83.1467 27.96 82.64C28.4933 82.1333 29.1733 81.88 30 81.88C30.7467 81.88 31.4 82.1467 31.96 82.68C32.5467 83.2133 32.84 83.8533 32.84 84.6C32.84 85.3467 32.5467 85.9867 31.96 86.52C31.4 87.0533 30.7467 87.32 30 87.32ZM50.36 109.44C49.24 109.44 48.16 109.333 47.12 109.12C46.08 108.933 45.12 108.627 44.24 108.2C43.36 107.747 42.5467 107.173 41.8 106.48L43.8 102.8L43.96 102.48L44.28 102.68C44.36 102.867 44.44 103.08 44.52 103.32C44.6 103.533 44.8 103.787 45.12 104.08C45.7867 104.64 46.5467 105.08 47.4 105.4C48.2533 105.72 49.2667 105.88 50.44 105.88C51.1867 105.88 51.8133 105.8 52.32 105.64C52.8533 105.453 53.2533 105.213 53.52 104.92C53.8133 104.6 53.96 104.24 53.96 103.84C53.96 103.52 53.88 103.24 53.72 103C53.56 102.76 53.3067 102.547 52.96 102.36C52.6133 102.173 52.16 101.987 51.6 101.8C51.04 101.587 50.3733 101.36 49.6 101.12C48.24 100.773 47.0533 100.347 46.04 99.84C45.0533 99.3067 44.2933 98.6667 43.76 97.92C43.2267 97.1733 42.96 96.3067 42.96 95.32C42.96 94.28 43.2533 93.36 43.84 92.56C44.4533 91.76 45.3067 91.1333 46.4 90.68C47.4933 90.2 48.7867 89.96 50.28 89.96C51.0533 89.96 51.7867 90.0267 52.48 90.16C53.1733 90.2667 53.8267 90.44 54.44 90.68C55.08 90.8933 55.6667 91.1867 56.2 91.56C56.76 91.9067 57.28 92.32 57.76 92.8L55.56 95.88L55.28 96.2L55 95.96C54.9733 95.7467 54.9067 95.5467 54.8 95.36C54.72 95.1467 54.52 94.8933 54.2 94.6C53.6667 94.2 53.0533 93.9067 52.36 93.72C51.6933 93.5333 51.0267 93.44 50.36 93.44C49.4533 93.44 48.6667 93.5867 48 93.88C47.36 94.1733 47.04 94.6267 47.04 95.24C47.04 95.5867 47.1867 95.9067 47.48 96.2C47.7733 96.4667 48.2533 96.7333 48.92 97C49.6133 97.24 50.52 97.5067 51.64 97.8C53.1333 98.2 54.3467 98.6667 55.28 99.2C56.24 99.7067 56.9333 100.32 57.36 101.04C57.8133 101.76 58.04 102.6 58.04 103.56C58.04 104.6 57.7467 105.573 57.16 106.48C56.5733 107.387 55.7067 108.107 54.56 108.64C53.44 109.173 52.04 109.44 50.36 109.44ZM71.96 109.4C70.8933 109.4 69.96 109.227 69.16 108.88C68.3867 108.533 67.7333 107.973 67.2 107.2C66.6933 106.427 66.32 105.4 66.08 104.12C65.8667 102.84 65.8 101.253 65.88 99.36L66.4 86L71.08 85.4L71.44 85.36L71.48 85.72C71.3733 85.9067 71.2667 86.0933 71.16 86.28C71.0533 86.4667 70.9867 86.7867 70.96 87.24L70.52 92.76L70.72 93.04L70.4 99.28C70.32 101.013 70.3733 102.36 70.56 103.32C70.7733 104.253 71.08 104.893 71.48 105.24C71.9067 105.587 72.4133 105.76 73 105.76C73.8533 105.76 74.6133 105.587 75.28 105.24C75.9733 104.893 76.6133 104.493 77.2 104.04L78.16 107.32C77.2533 107.987 76.28 108.507 75.24 108.88C74.2267 109.227 73.1333 109.4 71.96 109.4ZM62.36 90.4H76.68L76.64 93.96H62.28L62.36 90.4Z" fill="#224949"/>
</svg>
